HIERARCHY
ROOT Hips
{
  OFFSET 1.44925e-005 102.336 -0.101585
  CHANNELS 6 Xposition Yposition Zposition Zrotation Xrotation Yrotation
  JOINT LeftUpLeg
  {
    OFFSET 8.9458 -8.66707 0.101652
    CHANNELS 3 Zrotation Xrotation Yrotation
    JOINT LeftLeg
    {
      OFFSET 0 -44.4227 1.3727
      CHANNELS 3 Zrotation Xrotation Yrotation
      JOINT LeftFoot
      {
        OFFSET -0.253549 -42.0924 -1.46059
        CHANNELS 3 Zrotation Xrotation Yrotation
        JOINT LeftToes
        {
          OFFSET -0.04 -4.41509 8.4991
          CHANNELS 3 Zrotation Xrotation Yrotation
          End Site
          {
            OFFSET 0.08 -0.047448 9.77979
          }
        }
      }
    }
  }
  JOINT Spine
  {
    OFFSET 0 11.8905 0
    CHANNELS 3 Zrotation Xrotation Yrotation
    JOINT Spine1
    {
      OFFSET 0 25.6574 0.127663
      CHANNELS 3 Zrotation Xrotation Yrotation
      JOINT RightShoulder
      {
        OFFSET -8.99 -0.362252 -0.22
        CHANNELS 3 Zrotation Xrotation Yrotation
        JOINT RightArm
        {
          OFFSET -10.2827 -0.00338 0.322123
          CHANNELS 3 Zrotation Xrotation Yrotation
          JOINT RightForeArm
          {
            OFFSET -26.364 0.099144 -1.42434
            CHANNELS 3 Zrotation Xrotation Yrotation
            JOINT RightHand
            {
              OFFSET -22.0324 0.085362 1.02216
              CHANNELS 3 Zrotation Xrotation Yrotation
              End Site
              {
                OFFSET -13.3284 -0.6 1.50291
              }
            }
          }
        }
      }
      JOINT LeftShoulder1
      {
        OFFSET 8.99 -0.362252 -0.22
        CHANNELS 3 Zrotation Xrotation Yrotation
        JOINT LeftArm
        {
          OFFSET 10.2827 -0.00337999 0.322123
          CHANNELS 3 Zrotation Xrotation Yrotation
          JOINT LeftForeArm
          {
            OFFSET 26.2597 0.099144 -1.42434
            CHANNELS 3 Zrotation Xrotation Yrotation
            JOINT LeftHand
            {
              OFFSET 22.0902 0.085362 1.02216
              CHANNELS 3 Zrotation Xrotation Yrotation
              End Site
              {
                OFFSET 13.419 -0.6 1.50291
              }
            }
          }
        }
      }
      JOINT Head
      {
        OFFSET 0 8.73416 0.011341
        CHANNELS 3 Zrotation Xrotation Yrotation
        End Site
        {
          OFFSET -0.29 12.7742 2.51395
        }
      }
    }
  }
  JOINT RightUpLeg
  {
    OFFSET -8.9458 -8.66707 0.101652
    CHANNELS 3 Zrotation Xrotation Yrotation
    JOINT RightLeg
    {
      OFFSET 0 -44.4227 1.3727
      CHANNELS 3 Zrotation Xrotation Yrotation
      JOINT RightFoot
      {
        OFFSET 0.253549 -42.0924 -1.46059
        CHANNELS 3 Zrotation Xrotation Yrotation
        JOINT RightToes
        {
          OFFSET 0.04 -4.41509 8.4991
          CHANNELS 3 Zrotation Xrotation Yrotation
          End Site
          {
            OFFSET -0.08 -0.137448 9.77979
          }
        }
      }
    }
  }
}
MOTION
Frames:	21
Frame Time:	0.0333333
194.14 103.062 3.45563 -4.28415 -0.0378765 -93.4771 -0.378983 2.3357 2.4427 0.175235 9.4866 17.5591 -2.92286 -11.4363 -0.0443571 -1.28211e-009 8.75263e-006 -1.46771e-008 2.99698 8.73794 0.732846 -3.80476 -5.53976 1.51529 36.4779 1.73432 0.071514 42.0922 -14.3512 2.36889 7.03784 37.1137 10.3651 -9.74682 9.37415 1.37443 -43.6292 3.64141 -3.74682 -28.0838 -13.4633 4.16173 -3.76118 33.1628 -15.876 5.82328 9.61819 -0.917488 1.33804 5.12965 -2.61991 -0.659566 2.55719 -4.24139 0.185901 9.82019 -9.93303 2.55303 -12.6199 -0.093962 0.0462048 0.000530889 0.662642 
194.153 103.062 3.48285 -4.23851 -0.0456644 -93.4607 -0.392115 2.29883 2.43439 0.157128 9.44313 17.556 -2.9178 -11.4245 -0.0443553 -1.28211e-009 8.75263e-006 -1.46771e-008 3.02048 8.60757 0.738937 -3.76925 -5.37951 1.51489 36.4453 1.73432 0.071514 42.1067 -14.3466 2.42663 7.2074 36.5477 10.2617 -10.1708 9.39899 0.747747 -43.7114 3.65152 -3.7537 -28.0359 -13.5571 4.08054 -3.86093 33.1687 -15.7561 5.82328 9.61819 -0.917488 1.31657 4.42658 -3.41171 -0.679034 2.48667 -4.24065 0.180654 9.84604 -9.95134 2.57661 -12.6067 -0.0939572 0.0462048 0.000530889 0.662642 
194.178 103.062 3.52919 -4.17506 -0.0600467 -93.4366 -0.408546 2.22414 2.43646 0.11185 9.41973 17.5467 -2.90635 -11.4251 -0.0443554 -1.28211e-009 8.75263e-006 -1.46771e-008 3.02398 8.45631 0.753963 -3.67835 -5.17521 1.5144 36.3831 1.73432 0.071514 42.1217 -14.3667 2.48817 7.36979 35.9845 10.1577 -10.4515 9.44857 -0.0488701 -43.7877 3.66118 -3.76249 -28.0135 -13.8658 3.97538 -3.94305 33.4938 -15.5681 5.82328 9.61819 -0.917488 1.14976 3.3583 -4.83963 -0.717894 2.37485 -4.24699 0.178553 9.90009 -9.97116 2.59722 -12.5991 -0.0939544 0.0462048 0.000530889 0.662642 
194.206 103.062 3.57775 -4.14838 -0.0765197 -93.3878 -0.436218 2.15269 2.42517 0.0833023 9.45709 17.5207 -2.89012 -11.4431 -0.0443582 -1.28211e-009 8.75263e-006 -1.46771e-008 3.01556 8.40139 0.759685 -3.5942 -5.05712 1.51041 36.3504 1.73432 0.0704083 42.1051 -14.3375 2.49747 7.37629 35.7693 10.1893 -10.2625 9.49111 -0.467547 -43.7859 3.65859 -3.7621 -28.0652 -14.0901 3.9137 -3.90074 33.9186 -15.5051 5.82328 9.61819 -0.917488 1.05419 2.73577 -5.85727 -0.77568 2.29733 -4.28874 0.202235 9.96815 -9.97723 2.60071 -12.6135 -0.0939597 0.0462048 0.000530889 0.662642 
194.238 103.062 3.62459 -4.18179 -0.0840713 -93.3006 -0.472067 2.12259 2.39133 0.0926838 9.53025 17.4739 -2.88088 -11.4672 -0.044362 -1.28211e-009 8.75263e-006 -1.46771e-008 3.04972 8.47989 0.743647 -3.57586 -5.02922 1.4961 36.377 1.73398 0.065523 42.0608 -14.2555 2.48016 7.27735 35.7224 10.334 -9.9516 9.51 -0.539511 -43.7635 3.65316 -3.75141 -28.1017 -14.0853 3.88545 -3.82585 34.0599 -15.5582 5.82328 9.61819 -0.917488 1.25617 2.74448 -5.85077 -0.830774 2.29897 -4.35104 0.23849 10.0163 -9.99559 2.61213 -12.6326 -0.0939667 0.0462048 0.000530889 0.662642 
194.277 103.062 3.67107 -4.25091 -0.0685713 -93.2146 -0.484267 2.1286 2.37901 0.105386 9.60632 17.4064 -2.88579 -11.4927 -0.044366 -1.28211e-009 8.75263e-006 -1.46771e-008 3.15345 8.68269 0.724455 -3.60963 -5.05658 1.49007 36.3746 1.73075 0.0580128 42.0789 -14.2527 2.46822 7.13612 35.7848 10.4988 -9.80658 9.51572 -0.535043 -43.7983 3.65325 -3.7436 -28.0581 -14.0475 3.8433 -3.85205 33.9693 -15.5509 5.82328 9.61819 -0.917488 1.55018 3.06645 -5.08598 -0.849736 2.35836 -4.38026 0.255235 10.0178 -10.0434 2.64991 -12.6214 -0.0939626 0.0462048 0.000530889 0.662642 
194.321 103.062 3.7178 -4.30366 -0.0393093 -93.1769 -0.465653 2.13417 2.41401 0.08273 9.65429 17.3422 -2.87802 -11.5078 -0.0443683 -1.28211e-009 8.75263e-006 -1.46771e-008 3.28742 8.91973 0.725909 -3.63814 -5.09543 1.50481 36.2314 1.72046 0.0461237 42.2501 -14.4106 2.45733 6.9587 36.0933 10.6305 -9.7402 9.51935 -0.546064 -43.8581 3.66191 -3.75145 -28.0296 -14.1182 3.76208 -3.93653 34.0085 -15.4435 5.82328 9.61819 -0.917488 1.61351 3.19909 -4.18256 -0.84533 2.39824 -4.37369 0.256283 10.0023 -10.0864 2.69615 -12.5763 -0.093946 0.0462048 0.000530889 0.662642 
194.359 103.062 3.76221 -4.30978 -0.0322166 -93.1718 -0.461682 2.12069 2.44884 0.0374947 9.64228 17.3116 -2.82604 -11.4905 -0.0443656 -1.28211e-009 8.75263e-006 -1.46771e-008 3.38199 9.06034 0.739212 -3.63772 -5.105 1.52421 36.0128 1.70777 0.0349632 42.4963 -14.6037 2.44021 6.78727 36.5776 10.7136 -9.6524 9.51377 -0.421808 -43.8355 3.66932 -3.76968 -28.1207 -14.27 3.67525 -3.93815 34.3346 -15.3627 5.82328 9.61819 -0.917488 1.495 2.8957 -3.62142 -0.871179 2.36484 -4.38724 0.268757 10.0279 -10.0883 2.72488 -12.5388 -0.0939323 0.0462048 0.000530889 0.662642 
194.387 103.062 3.79906 -4.28218 -0.0635056 -93.1488 -0.503822 2.09495 2.43259 0.00831611 9.58062 17.313 -2.75502 -11.4449 -0.0443585 -1.28211e-009 8.75263e-006 -1.46771e-008 3.41221 9.06509 0.739732 -3.63384 -5.08404 1.52623 35.9263 1.70532 0.0365932 42.6058 -14.6455 2.42308 6.72962 36.8375 10.7293 -9.64012 9.493 -0.137047 -43.7022 3.66381 -3.77977 -28.2507 -14.585 3.63914 -3.87001 34.7677 -15.3236 5.82328 9.61819 -0.917488 1.43726 2.48749 -3.55302 -0.937689 2.28454 -4.43528 0.286879 10.0926 -10.0748 2.74023 -12.5401 -0.0939328 0.0462048 0.000530889 0.662642 
194.408 103.062 3.82369 -4.25159 -0.101261 -93.0995 -0.55641 2.06358 2.3877 0.00510307 9.53204 17.3147 -2.72518 -11.4091 -0.0443529 -1.28211e-009 8.75263e-006 -1.46771e-008 3.41627 9.01427 0.727464 -3.64632 -5.06503 1.51577 36.0378 1.71631 0.0527228 42.5074 -14.5347 2.401 6.82176 36.6003 10.6847 -9.72414 9.47346 0.0718379 -43.5554 3.64956 -3.77459 -28.269 -15.136 3.66458 -3.87415 35.0725 -15.2088 5.82328 9.61819 -0.917488 1.53335 2.20345 -3.71225 -0.991136 2.22357 -4.46708 0.285239 10.1315 -10.093 2.76108 -12.5572 -0.0939391 0.0462048 0.000530889 0.662642 
194.423 103.062 3.83757 -4.23577 -0.110279 -93.0524 -0.572959 2.03182 2.36436 0.0101615 9.53307 17.2941 -2.74379 -11.4039 -0.044352 -1.28211e-009 8.75263e-006 -1.46771e-008 3.43546 8.98482 0.718983 -3.65493 -5.05787 1.50881 36.1707 1.72643 0.0672849 42.3801 -14.4373 2.36384 6.95343 36.1323 10.6325 -9.7762 9.46865 0.102698 -43.4891 3.63986 -3.76634 -28.1954 -15.6195 3.71144 -3.95025 35.1501 -15.056 5.82328 9.61819 -0.917488 1.633 2.16371 -3.66267 -0.99738 2.20964 -4.46406 0.272563 10.1141 -10.14 2.78282 -12.5508 -0.0939367 0.0462048 0.000530889 0.662642 
194.436 103.062 3.84793 -4.23727 -0.0976411 -93.015 -0.562886 2.01505 2.36427 0.015013 9.54947 17.2568 -2.7585 -11.4083 -0.0443527 -1.28211e-009 8.75263e-006 -1.46771e-008 3.46868 8.97985 0.712668 -3.63852 -5.04548 1.5015 36.1594 1.72414 0.0680791 42.399 -14.4458 2.32372 6.99339 35.9698 10.6159 -9.77115 9.46163 0.198664 -43.4886 3.63895 -3.76555 -28.1711 -15.6227 3.75422 -3.96977 35.0114 -15.0624 5.82328 9.61819 -0.917488 1.65857 2.22727 -3.34075 -0.98497 2.22137 -4.46626 0.275222 10.0827 -10.1817 2.78588 -12.5225 -0.0939264 0.0462048 0.000530889 0.662642 
194.45 103.062 3.85885 -4.25213 -0.0888018 -92.9747 -0.55845 2.01714 2.36103 0.0259428 9.55142 17.2181 -2.74295 -11.4022 -0.0443518 -1.28211e-009 8.75263e-006 -1.46771e-008 3.50041 8.98452 0.693818 -3.62013 -5.0277 1.48222 36.066 1.71838 0.057988 42.5033 -14.5 2.31184 6.94956 36.23 10.6148 -9.82198 9.4389 0.463727 -43.4796 3.64014 -3.7674 -28.2297 -15.2243 3.81014 -3.88783 34.7085 -15.2549 5.82328 9.61819 -0.917488 1.70364 2.19854 -3.00158 -0.984229 2.23285 -4.46831 0.28686 10.0814 -10.2139 2.77581 -12.5022 -0.093919 0.0462048 0.000530889 0.662642 
194.469 103.062 3.86642 -4.2727 -0.0851254 -92.9356 -0.557242 2.01509 2.36259 0.0314569 9.56906 17.1821 -2.725 -11.4023 -0.0443518 -1.28211e-009 8.75263e-006 -1.46771e-008 3.52998 9.00007 0.662947 -3.63391 -5.01081 1.45568 36.0501 1.71615 0.05167 42.525 -14.5362 2.34632 6.9592 36.4266 10.564 -9.9597 9.42596 0.541666 -43.4219 3.6366 -3.76902 -28.2985 -14.8821 3.88168 -3.81854 34.3547 -15.4382 5.82328 9.61819 -0.917488 1.82895 2.1733 -2.66693 -0.983157 2.23687 -4.46676 0.28845 10.1045 -10.2506 2.7777 -12.5007 -0.0939185 0.0462048 0.000530889 0.662642 
194.491 103.062 3.86552 -4.29383 -0.0768027 -92.9127 -0.542874 1.99604 2.37446 0.0235914 9.62423 17.1482 -2.72553 -11.4152 -0.0443538 -1.28211e-009 8.75263e-006 -1.46771e-008 3.54297 9.02104 0.633702 -3.65907 -4.98785 1.43091 36.1422 1.71972 0.05335 42.4292 -14.5539 2.41346 7.10317 36.1501 10.4402 -10.0894 9.44698 0.189206 -43.332 3.62816 -3.76748 -28.3581 -14.7836 3.9401 -3.80542 34.1227 -15.5109 5.82328 9.61819 -0.917488 1.99634 2.14441 -2.23093 -0.973262 2.2361 -4.46258 0.291467 10.1319 -10.279 2.78992 -12.5078 -0.093921 0.0462048 0.000530889 0.662642 
194.514 103.062 3.85664 -4.31626 -0.0719058 -92.9061 -0.526461 1.9811 2.39224 0.0124112 9.67504 17.1226 -2.73318 -11.4247 -0.0443553 -1.28211e-009 8.75263e-006 -1.46771e-008 3.50975 9.04422 0.612907 -3.65127 -4.97674 1.40672 36.2667 1.72643 0.0577538 42.2887 -14.5403 2.47287 7.26658 35.7008 10.3271 -10.1346 9.47812 -0.234018 -43.242 3.61784 -3.76095 -28.4384 -14.7833 3.97754 -3.76651 34.1497 -15.5483 5.82328 9.61819 -0.917488 2.10679 2.06179 -1.94969 -0.972349 2.23086 -4.47111 0.309542 10.166 -10.2793 2.7855 -12.5204 -0.0939256 0.0462048 0.000530889 0.662642 
194.538 103.062 3.84237 -4.33318 -0.0804737 -92.9074 -0.521087 1.97935 2.40359 0.00352974 9.6825 17.1105 -2.74133 -11.4149 -0.0443538 -1.28211e-009 8.75263e-006 -1.46771e-008 3.44783 9.07651 0.598597 -3.63596 -5.01363 1.38581 36.3982 1.73288 0.0608815 42.1252 -14.5018 2.48963 7.2698 35.6976 10.3256 -10.0455 9.49101 -0.347103 -43.1627 3.60619 -3.75014 -28.5091 -14.864 4.00736 -3.70214 34.416 -15.555 5.82328 9.61819 -0.917488 2.14463 1.74536 -2.1425 -0.981024 2.20933 -4.48012 0.320921 10.2153 -10.2716 2.76561 -12.5396 -0.0939326 0.0462048 0.000530889 0.662642 
194.567 103.062 3.82146 -4.33146 -0.089785 -92.9104 -0.508303 1.96305 2.41768 -0.0110642 9.67378 17.098 -2.75428 -11.3954 -0.0443507 -1.28211e-009 8.75263e-006 -1.46771e-008 3.41174 9.11101 0.587623 -3.67068 -5.08329 1.37634 36.5552 1.73925 0.0623721 41.935 -14.5519 2.47795 7.10173 36.2451 10.4117 -9.80955 9.49781 -0.301395 -43.0863 3.59273 -3.73521 -28.5168 -15.1368 4.03007 -3.73734 34.6756 -15.4343 5.82328 9.61819 -0.917488 2.18086 1.22157 -2.53195 -0.970305 2.16149 -4.45632 0.306571 10.2699 -10.2962 2.76171 -12.552 -0.0939372 0.0462048 0.000530889 0.662642 
194.597 103.063 3.79121 -4.32316 -0.0865863 -92.9063 -0.471906 1.92862 2.44604 -0.0286326 9.68842 17.0635 -2.76398 -11.3815 -0.0443485 -1.28211e-009 8.75263e-006 -1.46771e-008 3.38145 9.1548 0.57917 -3.70397 -5.15252 1.36966 36.684 1.74511 0.0650246 41.7981 -14.7403 2.47415 6.94891 36.7963 10.4591 -9.618 9.50781 -0.321833 -43.0214 3.58127 -3.72239 -28.4874 -15.4512 4.06449 -3.88381 34.6362 -15.2487 5.82328 9.61819 -0.917488 2.27 0.94923 -2.54934 -0.933345 2.11385 -4.41149 0.287844 10.3099 -10.3512 2.77097 -12.5492 -0.0939361 0.0462048 0.000530889 0.662642 
194.622 103.064 3.75445 -4.34224 -0.0842633 -92.8926 -0.436977 1.92057 2.47444 -0.0382532 9.71597 17.017 -2.76738 -11.3741 -0.0443474 -1.28211e-009 8.75263e-006 -1.46771e-008 3.27194 9.26167 0.577195 -3.62455 -5.26232 1.34974 36.7013 1.74839 0.0729768 41.7896 -14.8385 2.46265 6.97991 36.7638 10.4148 -9.78719 9.49784 -0.289507 -42.995 3.57664 -3.71767 -28.488 -15.5014 4.15903 -3.9637 34.3232 -15.22 5.82328 9.61819 -0.917488 2.42357 1.07799 -2.13752 -0.902653 2.11002 -4.38774 0.285793 10.3311 -10.3916 2.74816 -12.5499 -0.0939364 0.0462048 0.000530889 0.662642 
194.64 103.065 3.71948 -4.38242 -0.101121 -92.8818 -0.43885 1.9456 2.47108 -0.0260992 9.72833 17.0046 -2.78822 -11.3638 -0.0443458 -1.28211e-009 8.75263e-006 -1.46771e-008 3.10474 9.42148 0.584076 -3.48757 -5.43057 1.32756 36.6525 1.74867 0.0777538 41.8352 -14.5925 2.4109 7.15886 36.1182 10.3642 -10.2806 9.46041 -0.0945999 -42.9926 3.57546 -3.71672 -28.5368 -15.3229 4.28699 -3.86314 34.1315 -15.3898 5.82328 9.61819 -0.917488 2.56519 1.35262 -1.65783 -0.899984 2.132 -4.38913 0.285851 10.3536 -10.3978 2.68717 -12.5723 -0.0939446 0.0462048 0.000530889 0.662642 
